<?xml version="1.0" standalone="no"?><!DOCTYPE svg PUBLIC "-//W3C//DTD SVG 1.1//EN" "http://www.w3.org/Graphics/SVG/1.1/DTD/svg11.dtd"><svg height="1024" node-id="1" sillyvg="true" template-height="1024" template-width="1024" version="1.1" viewBox="0 0 1024 1024" width="1024" xmlns="http://www.w3.org/2000/svg" xmlns:xlink="http://www.w3.org/1999/xlink"><defs node-id="123"><linearGradient gradientUnits="objectBoundingBox" id="linear-gradient" node-id="3" spreadMethod="pad" x1="0" x2="1" y1="0.331" y2="0.336"><stop offset="0" stop-color="#dceffe"></stop><stop offset="0.603" stop-color="#bee1fd"></stop><stop offset="1" stop-color="#a9dbfe"></stop></linearGradient><linearGradient gradientUnits="objectBoundingBox" id="linear-gradient-3" node-id="9" spreadMethod="pad" x1="0.478" x2="0.465" y1="0.405" y2="0.724"><stop offset="0" stop-color="#a9cbf8"></stop><stop offset="1" stop-color="#acddfe" stop-opacity="0"></stop></linearGradient><linearGradient gradientUnits="objectBoundingBox" id="linear-gradient-4" node-id="12" spreadMethod="pad" x1="0.21" x2="0.719" y1="0.804" y2="0.175"><stop offset="0" stop-color="#b9dcf8"></stop><stop offset="1" stop-color="#d4e6f8"></stop></linearGradient><linearGradient gradientUnits="objectBoundingBox" id="linear-gradient-5" node-id="22" spreadMethod="pad" x1="0.012" x2="0.017" y1="0.086" y2="1.048"><stop offset="0" stop-color="#a9cbf8"></stop><stop offset="0.573" stop-color="#aad5fc" stop-opacity="0"></stop><stop offset="0.818" stop-color="#abd9fd" stop-opacity="0"></stop><stop offset="1" stop-color="#acddfe" stop-opacity="0"></stop></linearGradient><linearGradient gradientUnits="objectBoundingBox" id="linear-gradient-7" node-id="27" spreadMethod="pad" x1="0" x2="1" y1="0.612" y2="0.612"><stop offset="0" stop-color="#a9cbf8"></stop><stop offset="0.45" stop-color="#aed0fe"></stop><stop offset="0.5" stop-color="#b4d4ff"></stop><stop offset="0.56" stop-color="#bcd9f9"></stop><stop offset="1" stop-color="#c9e2fa"></stop></linearGradient><linearGradient gradientUnits="objectBoundingBox" id="linear-gradient-9" node-id="40" spreadMethod="pad" x1="0.749" x2="0.181" y1="0.162" y2="0.796"><stop offset="0" stop-color="#bdd5f8"></stop><stop offset="1" stop-color="#97b7f0"></stop></linearGradient><linearGradient gradientUnits="objectBoundingBox" id="linear-gradient-10" node-id="49" spreadMethod="pad" x1="0.5" x2="0.5" y1="0" y2="1"><stop offset="0" stop-color="#f7ece1"></stop><stop offset="1" stop-color="#fadbb4"></stop></linearGradient><linearGradient gradientUnits="objectBoundingBox" id="linear-gradient-16" node-id="52" spreadMethod="pad" x1="0.461" x2="0.352" y1="0.286" y2="0.564"><stop offset="0" stop-color="#d8e5f5"></stop><stop offset="0.558" stop-color="#c7daf5"></stop><stop offset="1" stop-color="#b9d2f5"></stop></linearGradient><linearGradient gradientUnits="objectBoundingBox" id="linear-gradient-17" node-id="62" spreadMethod="pad" x1="0.618" x2="0.39" y1="0.215" y2="0.74"><stop offset="0" stop-color="#b1cdff"></stop><stop offset="1" stop-color="#7fa6eb"></stop></linearGradient><linearGradient gradientUnits="objectBoundingBox" id="linear-gradient-18" node-id="65" spreadMethod="pad" x1="0.242" x2="0.763" y1="0.156" y2="0.744"><stop offset="0" stop-color="#b9d2f8"></stop><stop offset="1" stop-color="#a7c5f6"></stop></linearGradient><filter height="1.2" id="路径_44" node-id="15" width="1.2" x="-0.1" y="-0.1"><feOffset color-interpolation-filters="linearRGB" dx="0" dy="0" in="SourceGraphic" result="result1"></feOffset><feGaussianBlur color-interpolation-filters="linearRGB" in="result1" result="blur" stdDeviation="2 2"></feGaussianBlur><feFlood color-interpolation-filters="linearRGB" flood-color="#ffffff" result="color"></feFlood><feComposite color-interpolation-filters="linearRGB" in="SourceGraphic" in2="blur" operator="out" result="result4"></feComposite><feComposite color-interpolation-filters="linearRGB" in="color" in2="result4" operator="in" result="result5"></feComposite><feComposite color-interpolation-filters="linearRGB" in="result5" in2="SourceGraphic" operator="in" result="result6"></feComposite></filter><filter height="1.2" id="路径_41" node-id="33" width="1.2" x="-0.1" y="-0.1"><feOffset color-interpolation-filters="linearRGB" dx="-1" dy="-1" in="SourceGraphic" result="result1"></feOffset><feGaussianBlur color-interpolation-filters="linearRGB" in="result1" result="blur-2" stdDeviation="0.5 0.5"></feGaussianBlur><feFlood color-interpolation-filters="linearRGB" flood-color="#ffffff" flood-opacity="0.522" result="color-2"></feFlood><feComposite color-interpolation-filters="linearRGB" in="SourceGraphic" in2="blur-2" operator="out" result="result4"></feComposite><feComposite color-interpolation-filters="linearRGB" in="color-2" in2="result4" operator="in" result="result5"></feComposite><feComposite color-interpolation-filters="linearRGB" in="result5" in2="SourceGraphic" operator="in" result="result6"></feComposite></filter><filter height="311.954" id="路径_47" node-id="43" width="531.515" x="175.428" y="397.802"><feOffset color-interpolation-filters="linearRGB" dx="0" dy="1" in="SourceGraphic" result="result1"></feOffset><feGaussianBlur color-interpolation-filters="linearRGB" in="result1" result="blur-3" stdDeviation="0.5 0.5"></feGaussianBlur><feFlood color-interpolation-filters="linearRGB" flood-color="#0d4792" flood-opacity="0.278" result="result3"></feFlood><feComposite color-interpolation-filters="linearRGB" in="result3" in2="blur-3" operator="in" result="result4"></feComposite><feComposite color-interpolation-filters="linearRGB" in="SourceGraphic" in2="result4" operator="over" result="result5"></feComposite></filter><filter height="171.687" id="路径_51" node-id="56" width="232.377" x="209.474" y="511.666"><feOffset color-interpolation-filters="linearRGB" dx="0" dy="3" in="SourceGraphic" result="result1"></feOffset><feGaussianBlur color-interpolation-filters="linearRGB" in="result1" result="blur-4" stdDeviation="3 3"></feGaussianBlur><feFlood color-interpolation-filters="linearRGB" flood-color="#023d78" flood-opacity="0.161" result="result3"></feFlood><feComposite color-interpolation-filters="linearRGB" in="result3" in2="blur-4" operator="in" result="result4"></feComposite><feComposite color-interpolation-filters="linearRGB" in="SourceGraphic" in2="result4" operator="over" result="result5"></feComposite></filter><clipPath id="clip-path_3" node-id="7"><path d="M 0.00 0.00 L 1024.00 0.00 L 1024.00 1024.00 L 0.00 1024.00 Z" fill="#000000" fill-rule="nonzero" id="矩形_1997" node-id="8" stroke="none" target-height="1024" target-width="1024" target-x="0" target-y="0"></path></clipPath><clipPath id="clip-path" node-id="7"><path d="M 0.00 0.00 L 1024.00 0.00 L 1024.00 1024.00 L 0.00 1024.00 Z" fill="#000000" fill-rule="nonzero" id="矩形_1997" node-id="8" stroke="none" target-height="1024" target-width="1024" target-x="0" target-y="0"></path></clipPath></defs><g clip-path="url(#clip-path)" id="理财" node-id="68"><path d="M 0.00 0.00 L 1024.00 0.00 L 1024.00 1024.00 L 0.00 1024.00 Z" fill="#ffffff" fill-rule="nonzero" node-id="256" stroke="none" target-height="1024" target-width="1024" target-x="0" target-y="0"></path><path d="M 0.00 0.00 L 1024.00 0.00 L 1024.00 1024.00 L 0.00 1024.00 Z" fill="url(#linear-gradient)" fill-rule="nonzero" group-id="1,2" id="矩形_1956" node-id="71" stroke="none" target-height="1024" target-width="1024" target-x="0" target-y="0"></path><g clip-path="url(#clip-path_3)" group-id="1,3" id="蒙版组_244" node-id="72"><path d="M 0.18 -86.69 L 0.18 345.00 L 505.52 567.80 L 972.77 345.00 L 972.77 -100.50 L 480.73 106.31 Z" fill="url(#linear-gradient-3)" fill-opacity="0.3572" fill-rule="nonzero" group-id="1,3,4,15" id="路径_43" node-id="74" stroke="none" target-height="668.3" target-width="972.5979" target-x="0.17700195" target-y="-100.50201"></path><path d="M 21.09 -111.22 L 35.84 -119.55 L 61.25 -134.16 L 95.25 -153.85 L 135.79 -177.41 L 180.80 -203.62 L 228.23 -231.27 L 276.02 -259.17 L 322.10 -286.09 L 364.43 -310.82 L 400.93 -332.17 L 429.55 -348.91 L 448.23 -359.85 L 454.92 -363.76 L 458.13 -365.64 L 461.64 -367.43 L 467.04 -369.77 L 473.09 -371.91 L 480.62 -373.91 L 485.87 -374.89 L 491.58 -375.52 L 497.81 -375.78 L 504.02 -375.55 L 510.59 -374.69 L 517.55 -373.15 L 522.61 -371.60 L 527.82 -369.55 L 533.21 -366.95 L 538.80 -363.76 L 554.13 -354.49 L 578.91 -339.87 L 611.28 -320.97 L 649.38 -298.85 L 691.35 -274.55 L 735.35 -249.15 L 779.50 -223.70 L 821.95 -199.25 L 860.85 -176.88 L 894.34 -157.63 L 920.56 -142.58 L 937.66 -132.76 L 943.77 -129.26 L 946.36 -128.08 L 952.70 -124.72 L 956.52 -122.36 L 960.61 -119.46 L 964.47 -116.19 L 967.89 -112.57 L 969.85 -109.92 L 971.34 -107.18 L 972.39 -104.33 L 972.84 -102.13 L 972.92 -99.86 L 972.62 -97.50 L 971.93 -95.01 L 970.90 -92.74 L 969.35 -90.31 L 967.19 -87.71 L 964.31 -84.89 L 961.37 -82.50 L 957.64 -79.93 L 953.02 -77.18 L 947.38 -74.24 L 939.88 -70.41 L 928.85 -64.37 L 901.91 -48.84 L 868.28 -28.77 L 829.67 -5.27 L 787.81 20.52 L 744.42 47.48 L 701.23 74.49 L 659.95 100.43 L 622.32 124.17 L 590.05 144.59 L 564.87 160.56 L 548.50 170.97 L 542.66 174.69 L 539.85 176.20 L 536.72 177.62 L 531.73 179.50 L 526.09 181.20 L 518.74 182.81 L 513.62 183.59 L 507.84 184.10 L 501.32 184.31 L 494.83 184.13 L 487.71 183.44 L 479.90 182.21 L 472.21 180.48 L 463.90 178.00 L 454.92 174.69 L 448.08 171.69 L 437.34 166.54 L 425.46 160.57 L 410.39 152.79 L 375.89 134.50 L 335.69 112.73 L 291.60 88.55 L 245.47 63.03 L 199.12 37.23 L 154.38 12.22 L 113.09 -10.95 L 77.08 -31.21 L 48.18 -47.49 L 28.22 -58.73 L 19.03 -63.86 L 15.52 -65.92 L 11.75 -68.52 L 8.19 -71.50 L 5.00 -74.85 L 3.16 -77.31 L 1.73 -79.87 L 0.67 -82.56 L 0.08 -85.35 L 0.06 -88.27 L 0.65 -91.38 L 1.45 -93.57 L 2.69 -95.88 L 4.46 -98.36 L 6.82 -101.03 L 10.26 -104.12 L 14.93 -107.51 L 21.09 -111.22 Z" fill="url(#linear-gradient-4)" fill-opacity="0.47" fill-rule="nonzero" group-id="1,3,4,16,46" id="路径_44-2" node-id="76" stroke="none" target-height="560.09827" target-width="972.85596" target-x="0.064331055" target-y="-375.7848"></path><path d="M 21.09 -111.22 L 35.84 -119.55 L 61.25 -134.16 L 95.25 -153.85 L 135.79 -177.41 L 180.80 -203.62 L 228.23 -231.27 L 276.02 -259.16 L 322.10 -286.08 L 364.42 -310.82 L 400.93 -332.17 L 429.55 -348.91 L 448.23 -359.84 L 454.92 -363.76 L 458.12 -365.64 L 461.64 -367.42 L 467.04 -369.77 L 473.09 -371.91 L 480.62 -373.90 L 485.86 -374.88 L 491.58 -375.52 L 497.81 -375.78 L 504.02 -375.54 L 510.59 -374.68 L 517.55 -373.15 L 522.61 -371.60 L 527.82 -369.54 L 533.21 -366.94 L 538.80 -363.76 L 554.13 -354.49 L 578.91 -339.87 L 611.28 -320.97 L 649.38 -298.84 L 691.35 -274.55 L 735.35 -249.15 L 779.50 -223.69 L 821.95 -199.25 L 860.85 -176.88 L 894.34 -157.63 L 920.56 -142.57 L 937.66 -132.76 L 943.77 -129.26 L 946.36 -128.08 L 952.70 -124.72 L 956.52 -122.36 L 960.60 -119.46 L 964.47 -116.19 L 967.89 -112.57 L 969.85 -109.92 L 971.34 -107.18 L 972.39 -104.33 L 972.84 -102.13 L 972.92 -99.86 L 972.62 -97.50 L 971.92 -95.01 L 970.90 -92.74 L 969.35 -90.31 L 967.19 -87.70 L 964.31 -84.89 L 961.37 -82.49 L 957.64 -79.93 L 953.02 -77.18 L 947.38 -74.24 L 939.88 -70.40 L 928.85 -64.37 L 901.91 -48.84 L 868.28 -28.76 L 829.67 -5.27 L 787.81 20.52 L 744.42 47.48 L 701.23 74.49 L 659.95 100.43 L 622.32 124.17 L 590.05 144.59 L 564.87 160.57 L 548.50 170.98 L 542.65 174.70 L 539.85 176.20 L 536.72 177.62 L 531.73 179.51 L 526.09 181.20 L 518.74 182.81 L 513.62 183.59 L 507.84 184.10 L 501.32 184.32 L 494.83 184.13 L 487.71 183.45 L 479.89 182.21 L 472.21 180.48 L 463.90 178.00 L 454.92 174.70 L 448.08 171.70 L 437.34 166.54 L 425.46 160.58 L 410.39 152.79 L 375.89 134.50 L 335.69 112.73 L 291.60 88.56 L 245.47 63.04 L 199.12 37.24 L 154.38 12.22 L 113.09 -10.95 L 77.08 -31.21 L 48.18 -47.49 L 28.22 -58.72 L 19.03 -63.86 L 15.52 -65.91 L 11.75 -68.52 L 8.19 -71.49 L 5.00 -74.85 L 3.16 -77.31 L 1.73 -79.87 L 0.67 -82.56 L 0.08 -85.35 L 0.06 -88.27 L 0.65 -91.38 L 1.45 -93.56 L 2.69 -95.88 L 4.46 -98.36 L 6.82 -101.02 L 10.26 -104.12 L 14.93 -107.51 L 21.09 -111.22 Z" fill="#ffffff" fill-opacity="0.47" fill-rule="nonzero" filter="url(#路径_44)" group-id="1,3,4,16,47,51" id="路径_44-3" node-id="78" stroke="none" target-height="560.09827" target-width="972.85596" target-x="0.063323975" target-y="-375.78186"></path><path d="M 766.72 232.04 L 766.72 554.03 L 1272.06 720.20 L 1739.32 554.03 L 1739.32 221.74 L 1247.27 376.00 Z" fill="url(#linear-gradient-5)" fill-rule="nonzero" group-id="1,3,5,17" id="路径_43-2" node-id="80" stroke="none" target-height="498.464" target-width="972.5979" target-x="766.723" target-y="221.73999"></path><path d="M 787.63 211.02 L 802.39 202.69 L 827.80 188.08 L 861.80 168.39 L 902.34 144.83 L 947.35 118.62 L 994.78 90.97 L 1042.56 63.08 L 1088.65 36.16 L 1130.97 11.42 L 1167.47 -9.93 L 1196.10 -26.67 L 1214.78 -37.60 L 1221.46 -41.52 L 1224.67 -43.40 L 1228.19 -45.19 L 1233.59 -47.53 L 1239.64 -49.67 L 1247.17 -51.66 L 1252.41 -52.64 L 1258.13 -53.28 L 1264.36 -53.54 L 1270.57 -53.30 L 1277.14 -52.44 L 1284.10 -50.91 L 1289.15 -49.36 L 1294.37 -47.30 L 1299.76 -44.70 L 1305.35 -41.52 L 1320.68 -32.25 L 1345.46 -17.63 L 1377.83 1.27 L 1415.93 23.40 L 1457.90 47.69 L 1501.89 73.09 L 1546.04 98.55 L 1588.50 122.99 L 1627.40 145.36 L 1660.89 164.61 L 1687.11 179.67 L 1704.20 189.48 L 1710.31 192.98 L 1712.91 194.16 L 1719.25 197.52 L 1723.07 199.88 L 1727.15 202.78 L 1731.02 206.05 L 1734.44 209.67 L 1736.40 212.32 L 1737.89 215.06 L 1738.94 217.91 L 1739.39 220.11 L 1739.47 222.38 L 1739.17 224.74 L 1738.47 227.23 L 1737.45 229.50 L 1735.90 231.93 L 1733.74 234.54 L 1730.86 237.35 L 1727.91 239.74 L 1724.19 242.31 L 1719.57 245.06 L 1713.92 248.00 L 1706.43 251.84 L 1695.40 257.87 L 1668.46 273.40 L 1634.82 293.48 L 1596.21 316.97 L 1554.35 342.76 L 1510.97 369.72 L 1467.77 396.73 L 1426.50 422.67 L 1388.87 446.41 L 1356.60 466.83 L 1331.42 482.81 L 1315.04 493.22 L 1309.20 496.94 L 1306.40 498.44 L 1303.27 499.86 L 1298.28 501.75 L 1292.64 503.44 L 1285.29 505.05 L 1280.17 505.83 L 1274.38 506.34 L 1267.86 506.56 L 1261.37 506.37 L 1254.25 505.69 L 1246.44 504.45 L 1238.75 502.72 L 1230.45 500.24 L 1221.46 496.94 L 1214.63 493.94 L 1203.89 488.78 L 1192.01 482.82 L 1176.93 475.03 L 1142.44 456.74 L 1102.23 434.97 L 1058.15 410.80 L 1012.01 385.28 L 965.66 359.47 L 920.93 334.46 L 879.64 311.29 L 843.63 291.03 L 814.73 274.75 L 794.76 263.51 L 785.58 258.38 L 782.06 256.32 L 778.30 253.72 L 774.74 250.75 L 771.55 247.39 L 769.71 244.93 L 768.27 242.37 L 767.21 239.68 L 766.63 236.89 L 766.61 233.97 L 767.19 230.86 L 767.99 228.68 L 769.24 226.36 L 771.00 223.88 L 773.37 221.22 L 776.80 218.12 L 781.47 214.73 L 787.63 211.02 Z" fill="url(#linear-gradient-4)" fill-rule="nonzero" group-id="1,3,5,18" id="路径_44-4" node-id="81" stroke="none" target-height="560.09827" target-width="972.856" target-x="766.6103" target-y="-53.542786"></path><path d="M 25.71 621.70 L 25.71 1365.36 L 998.31 1365.36 L 998.31 608.47 Z" fill="url(#linear-gradient-7)" fill-rule="nonzero" group-id="1,3,6,19" id="路径_42" node-id="83" stroke="none" target-height="756.889" target-width="972.59985" target-x="25.71289" target-y="608.466"></path><path d="M 46.62 597.75 L 61.38 589.42 L 86.79 574.80 L 120.79 555.11 L 161.33 531.56 L 206.34 505.35 L 253.77 477.69 L 301.55 449.80 L 347.64 422.88 L 389.96 398.14 L 426.46 376.80 L 455.09 360.06 L 473.77 349.12 L 480.46 345.21 L 483.66 343.33 L 487.18 341.54 L 492.58 339.20 L 498.63 337.06 L 506.16 335.06 L 511.40 334.08 L 517.12 333.45 L 523.35 333.18 L 529.56 333.42 L 536.13 334.28 L 543.09 335.81 L 548.14 337.36 L 553.36 339.42 L 558.75 342.02 L 564.34 345.21 L 579.67 354.48 L 604.45 369.09 L 636.82 387.99 L 674.92 410.12 L 716.89 434.42 L 760.88 459.82 L 805.03 485.27 L 847.49 509.71 L 886.39 532.09 L 919.88 551.33 L 946.10 566.39 L 963.19 576.20 L 969.30 579.71 L 971.90 580.89 L 978.24 584.25 L 982.06 586.61 L 986.14 589.51 L 990.01 592.77 L 993.43 596.39 L 995.39 599.05 L 996.88 601.79 L 997.93 604.64 L 998.38 606.84 L 998.46 609.11 L 998.16 611.47 L 997.46 613.95 L 996.44 616.23 L 994.89 618.66 L 992.73 621.26 L 989.85 624.08 L 986.90 626.47 L 983.18 629.04 L 978.56 631.79 L 972.91 634.73 L 965.42 638.56 L 954.39 644.59 L 927.45 660.13 L 893.81 680.20 L 855.21 703.70 L 813.34 729.49 L 769.96 756.45 L 726.76 783.46 L 685.49 809.40 L 647.86 833.14 L 615.59 853.56 L 590.41 869.53 L 574.03 879.94 L 568.19 883.66 L 565.39 885.16 L 562.26 886.58 L 557.27 888.47 L 551.63 890.17 L 544.28 891.78 L 539.16 892.55 L 533.37 893.07 L 526.85 893.28 L 520.36 893.10 L 513.24 892.41 L 505.43 891.18 L 497.74 889.44 L 489.44 886.96 L 480.46 883.66 L 473.62 880.66 L 462.88 875.51 L 451.00 869.54 L 435.93 861.76 L 401.43 843.46 L 361.22 821.70 L 317.14 797.52 L 271.00 772.00 L 224.65 746.20 L 179.92 721.18 L 138.63 698.01 L 102.62 677.76 L 73.72 661.48 L 53.75 650.24 L 44.57 645.11 L 41.05 643.05 L 37.29 640.45 L 33.73 637.47 L 30.54 634.12 L 28.70 631.66 L 27.26 629.09 L 26.20 626.41 L 25.62 623.61 L 25.60 620.69 L 26.18 617.59 L 26.98 615.40 L 28.23 613.08 L 29.99 610.61 L 32.36 607.94 L 35.79 604.84 L 40.46 601.46 L 46.62 597.75 Z" fill="url(#linear-gradient-4)" fill-rule="nonzero" group-id="1,3,6,20,48" id="路径_41-2" node-id="85" stroke="none" target-height="560.09827" target-width="972.85596" target-x="25.600342" target-y="333.18323"></path><path d="M 46.62 597.75 L 61.38 589.42 L 86.79 574.81 L 120.79 555.12 L 161.33 531.56 L 206.34 505.35 L 253.77 477.70 L 301.55 449.80 L 347.64 422.89 L 389.96 398.15 L 426.46 376.80 L 455.08 360.06 L 473.77 349.13 L 480.45 345.21 L 483.66 343.33 L 487.18 341.54 L 492.58 339.20 L 498.62 337.06 L 506.16 335.07 L 511.40 334.08 L 517.12 333.45 L 523.35 333.19 L 529.56 333.42 L 536.12 334.29 L 543.09 335.82 L 548.14 337.37 L 553.36 339.43 L 558.75 342.03 L 564.33 345.21 L 579.67 354.48 L 604.45 369.10 L 636.81 388.00 L 674.91 410.12 L 716.89 434.42 L 760.88 459.82 L 805.03 485.28 L 847.49 509.72 L 886.39 532.09 L 919.88 551.34 L 946.10 566.39 L 963.19 576.21 L 969.30 579.71 L 971.90 580.89 L 978.24 584.25 L 982.05 586.61 L 986.14 589.51 L 990.01 592.78 L 993.43 596.40 L 995.39 599.05 L 996.88 601.79 L 997.93 604.64 L 998.38 606.84 L 998.46 609.11 L 998.16 611.47 L 997.46 613.96 L 996.44 616.23 L 994.89 618.66 L 992.73 621.27 L 989.85 624.08 L 986.90 626.47 L 983.18 629.04 L 978.56 631.79 L 972.91 634.73 L 965.42 638.56 L 954.39 644.60 L 927.45 660.13 L 893.81 680.21 L 855.20 703.70 L 813.34 729.49 L 769.96 756.45 L 726.76 783.46 L 685.49 809.40 L 647.86 833.14 L 615.59 853.56 L 590.40 869.54 L 574.03 879.94 L 568.19 883.66 L 565.39 885.17 L 562.26 886.59 L 557.27 888.47 L 551.63 890.17 L 544.28 891.78 L 539.16 892.56 L 533.37 893.07 L 526.85 893.28 L 520.36 893.10 L 513.24 892.42 L 505.43 891.18 L 497.74 889.45 L 489.44 886.97 L 480.45 883.66 L 473.62 880.66 L 462.88 875.51 L 451.00 869.54 L 435.92 861.76 L 401.43 843.47 L 361.22 821.70 L 317.14 797.52 L 271.00 772.00 L 224.65 746.20 L 179.92 721.19 L 138.63 698.02 L 102.62 677.76 L 73.71 661.48 L 53.75 650.24 L 44.57 645.11 L 41.05 643.05 L 37.29 640.45 L 33.73 637.48 L 30.54 634.12 L 28.70 631.66 L 27.26 629.10 L 26.20 626.41 L 25.62 623.62 L 25.60 620.70 L 26.18 617.59 L 26.98 615.40 L 28.23 613.09 L 29.99 610.61 L 32.36 607.95 L 35.79 604.85 L 40.46 601.46 L 46.62 597.75 Z" fill="#ffffff" fill-rule="nonzero" filter="url(#路径_41)" group-id="1,3,6,20,49,52" id="路径_41-3" node-id="87" stroke="none" target-height="560.09827" target-width="972.85596" target-x="25.599335" target-y="333.18622"></path><path d="M 153.11 598.85 L 159.76 602.90 L 175.12 611.86 L 197.23 624.61 L 224.11 640.03 L 253.79 657.01 L 284.31 674.44 L 313.70 691.20 L 339.98 706.18 L 361.19 718.25 L 375.36 726.32 L 380.52 729.25 L 382.50 730.34 L 384.68 731.29 L 388.11 732.40 L 391.96 733.20 L 396.88 733.61 L 400.28 733.53 L 404.09 733.06 L 408.36 732.14 L 412.50 730.84 L 417.05 728.89 L 422.06 726.20 L 433.34 719.56 L 453.68 707.71 L 481.19 691.74 L 513.96 672.74 L 550.10 651.81 L 587.70 630.03 L 624.88 608.50 L 659.72 588.32 L 690.33 570.57 L 714.81 556.35 L 731.26 546.75 L 737.77 542.87 L 738.54 542.06 L 739.17 540.91 L 739.64 539.33 L 740.01 536.82 L 740.09 534.06 L 739.96 531.33 L 739.70 529.11 L 739.31 527.18 L 739.04 526.51 L 732.28 522.26 L 717.08 513.33 L 695.31 500.76 L 668.81 485.57 L 639.44 468.80 L 609.05 451.50 L 579.49 434.70 L 552.61 419.44 L 530.28 406.76 L 514.34 397.68 L 506.63 393.26 L 503.30 391.53 L 499.97 390.26 L 496.61 389.42 L 493.21 389.01 L 489.75 389.01 L 485.50 389.55 L 480.97 390.69 L 476.14 392.51 L 470.93 395.07 L 461.79 400.28 L 442.47 411.42 L 415.06 427.29 L 381.65 446.66 L 344.34 468.31 L 305.23 491.02 L 266.39 513.58 L 229.92 534.78 L 197.92 553.38 L 172.47 568.17 L 155.66 577.94 L 149.60 581.47 L 149.30 583.55 L 149.12 585.67 L 149.09 588.47 L 149.35 591.37 L 150.02 594.24 L 150.76 596.03 L 151.78 597.56 L 153.11 598.85 Z" fill="#3f75c4" fill-rule="nonzero" group-id="1,3,7,21" id="路径_45" node-id="89" stroke="none" target-height="344.59732" target-width="591.0001" target-x="149.09363" target-y="389.00912"></path><path d="M 159.64 595.35 L 170.16 601.91 L 187.60 612.17 L 210.29 625.22 L 236.56 640.16 L 264.74 656.06 L 293.16 672.03 L 320.16 687.13 L 344.07 700.47 L 363.21 711.12 L 375.91 718.19 L 380.52 720.74 L 382.49 721.83 L 384.68 722.78 L 388.10 723.89 L 391.95 724.69 L 396.88 725.10 L 400.28 725.02 L 404.08 724.55 L 408.36 723.64 L 412.50 722.33 L 417.05 720.38 L 422.06 717.69 L 433.19 711.15 L 453.11 699.58 L 480.00 684.03 L 512.01 665.53 L 547.32 645.16 L 584.07 623.95 L 620.44 602.96 L 654.59 583.24 L 684.68 565.85 L 708.87 551.82 L 725.32 542.22 L 732.21 538.10 L 734.41 536.32 L 736.51 534.05 L 737.69 532.34 L 738.56 530.51 L 739.13 528.56 L 739.29 526.57 L 738.93 524.48 L 738.00 522.24 L 736.61 520.24 L 734.37 518.08 L 731.05 515.72 L 722.90 510.89 L 707.25 501.70 L 685.76 489.15 L 660.14 474.20 L 632.07 457.84 L 603.24 441.04 L 575.33 424.79 L 550.03 410.05 L 529.02 397.82 L 513.99 389.06 L 506.63 384.75 L 503.30 383.02 L 499.97 381.75 L 496.61 380.92 L 493.21 380.50 L 489.75 380.50 L 485.50 381.04 L 480.97 382.18 L 476.14 384.00 L 470.93 386.56 L 462.03 391.64 L 443.38 402.41 L 416.99 417.70 L 384.85 436.36 L 348.99 457.20 L 311.40 479.06 L 274.09 500.77 L 239.07 521.16 L 208.33 539.05 L 183.90 553.28 L 167.77 562.67 L 161.94 566.06 L 160.12 567.11 L 158.33 568.30 L 156.04 570.07 L 153.85 572.16 L 151.85 574.66 L 150.77 576.51 L 150.03 578.48 L 149.63 580.59 L 149.68 582.72 L 150.27 585.03 L 151.53 587.59 L 153.23 589.88 L 155.85 592.46 L 159.64 595.35 Z" fill="url(#linear-gradient-9)" fill-rule="nonzero" group-id="1,3,7,22" id="路径_46" node-id="90" stroke="none" target-height="344.5969" target-width="589.6518" target-x="149.63397" target-y="380.5015"></path><path d="M 185.74 593.27 L 196.27 599.80 L 213.97 610.17 L 236.90 623.31 L 263.10 638.16 L 290.62 653.66 L 317.51 668.73 L 341.83 682.31 L 361.61 693.32 L 374.91 700.72 L 379.78 703.42 L 381.51 704.38 L 383.43 705.21 L 386.44 706.19 L 389.82 706.89 L 394.15 707.25 L 397.13 707.18 L 400.48 706.77 L 404.23 705.96 L 407.87 704.81 L 411.87 703.10 L 416.27 700.74 L 426.25 694.87 L 444.32 684.37 L 468.80 670.20 L 498.01 653.32 L 530.25 634.69 L 563.84 615.30 L 597.09 596.09 L 628.32 578.05 L 655.83 562.13 L 677.94 549.30 L 692.97 540.53 L 699.23 536.78 L 701.16 535.23 L 703.01 533.23 L 704.05 531.72 L 704.81 530.12 L 705.31 528.41 L 705.45 526.66 L 705.13 524.82 L 704.32 522.86 L 703.09 521.10 L 701.13 519.20 L 698.22 517.13 L 689.95 512.23 L 673.89 502.82 L 651.99 490.03 L 626.24 475.01 L 598.59 458.90 L 571.03 442.85 L 545.53 428.00 L 524.05 415.49 L 508.58 406.47 L 501.07 402.08 L 497.41 400.24 L 493.74 399.03 L 490.03 398.40 L 486.24 398.34 L 482.50 398.82 L 478.53 399.82 L 474.28 401.41 L 469.71 403.67 L 461.68 408.25 L 444.72 418.04 L 420.67 431.99 L 391.36 449.02 L 358.63 468.05 L 324.31 488.02 L 290.23 507.86 L 258.24 526.49 L 230.16 542.85 L 207.83 555.86 L 193.09 564.45 L 187.76 567.55 L 186.16 568.47 L 184.59 569.51 L 182.58 571.07 L 180.65 572.90 L 178.90 575.10 L 177.95 576.72 L 177.31 578.45 L 176.95 580.31 L 176.99 582.18 L 177.52 584.20 L 178.62 586.45 L 180.11 588.47 L 182.41 590.73 L 185.74 593.27 Z" fill="#dfe2f1" fill-rule="nonzero" filter="url(#路径_47)" group-id="1,3,8,23" id="路径_47-2" node-id="92" stroke="none" target-height="308.9032" target-width="528.4946" target-x="176.953" target-y="398.3437"></path><path d="M 635.32 494.01 L 665.18 477.02 L 651.87 469.08 L 636.68 473.36 Z" fill="#7c85a8" fill-rule="nonzero" group-id="1,3,9" id="路径_49" node-id="93" stroke="none" target-height="24.937988" target-width="29.863037" target-x="635.31696" target-y="469.076"></path><path d="M 237.52 563.85 L 247.21 570.03 L 262.65 579.47 L 282.24 591.25 L 304.39 604.44 L 327.51 618.13 L 350.00 631.39 L 370.26 643.31 L 386.71 652.97 L 397.75 659.43 L 401.78 661.79 L 404.98 663.20 L 408.44 664.57 L 413.62 666.41 L 419.33 668.17 L 426.24 669.92 L 433.50 671.30 L 441.41 672.21 L 446.76 672.46 L 452.17 672.31 L 457.66 671.78 L 463.06 670.79 L 468.35 669.24 L 473.55 667.12 L 483.70 661.30 L 500.92 651.41 L 523.53 638.41 L 549.88 623.25 L 578.30 606.89 L 607.14 590.27 L 634.71 574.36 L 659.38 560.10 L 679.46 548.44 L 693.30 540.36 L 699.23 536.79 L 701.16 535.23 L 703.01 533.23 L 704.05 531.73 L 704.81 530.12 L 705.31 528.41 L 705.45 526.66 L 705.14 524.83 L 704.32 522.86 L 703.09 521.10 L 701.13 519.20 L 698.22 517.13 L 689.96 512.23 L 673.89 502.82 L 652.00 490.03 L 626.24 475.01 L 598.60 458.90 L 571.04 442.85 L 545.53 428.00 L 524.06 415.49 L 508.58 406.47 L 501.07 402.08 L 497.41 400.24 L 493.75 399.03 L 490.04 398.40 L 486.24 398.34 L 482.51 398.82 L 478.53 399.82 L 474.28 401.42 L 469.71 403.67 L 461.58 408.30 L 444.92 417.91 L 421.70 431.37 L 393.87 447.52 L 363.39 465.23 L 332.23 483.35 L 302.34 500.74 L 275.68 516.26 L 254.21 528.76 L 239.90 537.10 L 234.69 540.13 L 233.44 540.90 L 232.25 541.79 L 230.76 543.13 L 229.40 544.72 L 228.24 546.68 L 227.71 548.10 L 227.45 549.66 L 227.47 551.40 L 227.83 553.10 L 228.64 555.00 L 230.03 557.17 L 231.71 559.12 L 234.15 561.34 L 237.52 563.85 Z" fill="#f5f7ff" fill-rule="nonzero" group-id="1,3,10,24" id="路径_50" node-id="95" stroke="none" target-height="274.11133" target-width="478.00027" target-x="227.449" target-y="398.34467"></path><path d="M 256.49 544.80 L 307.93 514.58 L 321.00 522.37 L 270.67 553.14 Z" fill="url(#linear-gradient-10)" fill-rule="nonzero" group-id="1,3,10,25" id="路径_52" node-id="96" stroke="none" target-height="38.56598" target-width="64.507965" target-x="256.489" target-y="514.579"></path><path d="M 261.15 572.23 L 312.59 542.00 L 325.66 549.79 L 275.34 580.57 Z" fill="url(#linear-gradient-10)" fill-rule="nonzero" group-id="1,3,10,26" id="路径_53" node-id="97" stroke="none" target-height="38.56598" target-width="64.507965" target-x="261.155" target-y="542.005"></path><path d="M 318.88 567.49 L 370.32 537.27 L 383.39 545.05 L 333.06 575.83 Z" fill="url(#linear-gradient-10)" fill-rule="nonzero" group-id="1,3,10,27" id="路径_54" node-id="98" stroke="none" target-height="38.56604" target-width="64.507965" target-x="318.88202" target-y="537.26697"></path><path d="M 327.39 594.44 L 378.83 564.21 L 391.90 572.00 L 341.57 602.78 Z" fill="url(#linear-gradient-10)" fill-rule="nonzero" group-id="1,3,10,28" id="路径_55" node-id="99" stroke="none" target-height="38.56604" target-width="64.507965" target-x="327.39" target-y="564.21497"></path><path d="M 355.75 608.62 L 449.69 553.84 L 462.76 561.62 L 369.93 616.96 Z" fill="url(#linear-gradient-10)" fill-rule="nonzero" group-id="1,3,10,29" id="路径_56" node-id="100" stroke="none" target-height="63.12201" target-width="107.01297" target-x="355.75" target-y="553.838"></path><path d="M 391.90 619.96 L 505.36 553.12 L 518.43 560.90 L 406.08 628.30 Z" fill="url(#linear-gradient-10)" fill-rule="nonzero" group-id="1,3,10,30" id="路径_57" node-id="101" stroke="none" target-height="75.186035" target-width="126.533966" target-x="391.897" target-y="553.115"></path><path d="M 237.69 517.67 L 432.85 629.36 L 431.05 631.22 L 429.31 633.25 L 427.07 636.25 L 424.97 639.63 L 423.05 643.61 L 422.07 646.42 L 421.43 649.35 L 421.14 652.44 L 421.32 655.51 L 422.08 658.65 L 423.48 661.91 L 424.85 664.13 L 426.71 666.41 L 429.13 668.76 L 432.20 671.18 L 430.42 671.35 L 427.71 671.22 L 423.77 670.65 L 417.69 669.30 L 409.64 667.01 L 401.10 664.15 L 391.05 660.33 L 387.54 658.75 L 381.52 655.69 L 366.24 647.32 L 346.80 636.22 L 324.79 623.38 L 301.80 609.79 L 279.42 596.44 L 259.24 584.34 L 242.86 574.46 L 231.87 567.80 L 227.85 565.37 L 226.17 563.50 L 224.59 561.44 L 222.61 558.31 L 220.85 554.75 L 219.36 550.39 L 218.73 547.32 L 218.48 543.98 L 218.65 540.34 L 219.21 537.48 L 220.09 534.85 L 221.28 532.40 L 223.53 529.01 L 226.09 526.08 L 228.87 523.50 L 231.48 521.46 L 235.88 518.63 L 237.69 517.67 Z" fill="url(#linear-gradient-16)" fill-rule="nonzero" filter="url(#路径_51)" group-id="1,3,10,31,50" id="路径_51-2" node-id="103" stroke="none" target-height="153.68304" target-width="214.36604" target-x="218.48497" target-y="517.668"></path><path d="M 535.15 433.48 L 578.57 392.63 L 682.52 452.09 L 635.25 494.01 Z" fill="#99baf0" fill-rule="nonzero" group-id="1,3,11" id="路径_48" node-id="104" stroke="none" target-height="101.38501" target-width="147.37195" target-x="535.148" target-y="392.63"></path><path d="M 309.41 459.48 L 317.33 464.33 L 331.01 472.26 L 348.35 482.13 L 367.26 492.78 L 385.62 503.06 L 401.33 511.83 L 412.30 517.94 L 416.43 520.23 L 417.91 520.99 L 419.54 521.59 L 422.05 522.15 L 424.85 522.34 L 428.42 521.97 L 430.81 521.38 L 433.51 520.33 L 436.55 518.75 L 443.88 514.30 L 454.64 507.69 L 467.24 499.92 L 480.09 491.96 L 491.59 484.81 L 500.16 479.45 L 504.19 476.87 L 505.61 475.68 L 506.84 474.09 L 507.40 472.88 L 507.60 471.62 L 507.44 470.23 L 506.89 468.97 L 505.70 467.59 L 503.63 466.03 L 497.09 462.40 L 484.04 455.38 L 466.66 446.12 L 447.16 435.76 L 427.73 425.46 L 410.58 416.34 L 397.88 409.56 L 391.85 406.27 L 389.15 405.00 L 386.44 404.33 L 383.67 404.22 L 380.89 404.63 L 377.87 405.58 L 374.55 407.15 L 368.95 410.38 L 359.01 416.26 L 346.61 423.65 L 333.67 431.39 L 322.08 438.35 L 313.73 443.36 L 310.52 445.29 L 309.30 446.01 L 308.15 446.83 L 306.80 448.03 L 305.64 449.45 L 304.81 451.11 L 304.56 452.29 L 304.64 453.57 L 305.09 455.00 L 305.87 456.29 L 307.25 457.77 L 309.41 459.48 Z" fill="url(#linear-gradient-17)" fill-opacity="0.45" fill-rule="nonzero" group-id="1,3,12,32" id="路径_58" node-id="106" stroke="#ffffff" stroke-linecap="butt" stroke-opacity="0.45" stroke-width="0.5" target-height="118.12439" target-width="203.04468" target-x="304.5564" target-y="404.21503"></path><path d="M 337.87 429.62 L 339.80 429.50 L 344.63 429.45 L 347.64 429.61 L 350.93 429.99 L 354.20 430.65 L 357.25 431.62 L 359.16 432.52 L 360.79 433.59 L 362.16 434.85 L 363.22 436.33 L 363.91 438.08 L 364.21 440.17 L 364.43 443.46 L 364.98 446.67 L 365.85 449.82 L 367.07 452.83 L 368.63 455.56 L 370.55 458.04 L 372.81 460.18 L 375.48 461.90 L 378.60 463.22 L 381.02 463.83 L 383.75 464.14 L 386.82 464.12 L 390.28 463.71 L 400.39 461.74 L 411.75 459.61 L 417.58 458.74 L 423.20 458.15 L 428.69 457.94 L 433.54 458.22 L 436.65 458.75 L 439.31 459.57 L 441.58 460.66 L 443.55 462.14 L 445.05 464.01 L 446.13 466.33 L 447.39 470.74 L 448.25 474.35 L 449.06 477.71 L 449.88 480.38 L 451.00 482.74 L 452.53 484.62 L 453.81 485.60 L 455.52 486.48 L 457.76 487.23 L 461.52 487.95 L 467.10 488.41 L 478.39 488.75 L 483.89 488.63 L 485.67 488.35 L 485.80 488.19" fill="none" group-id="1,3,12,33" id="路径_59" node-id="107" stroke="#deedfa" stroke-linecap="round" stroke-width="2" target-height="59.295837" target-width="147.93298" target-x="337.86902" target-y="429.45184"></path><path d="M 387.49 465.57 L 386.59 467.25 L 385.23 468.57 L 383.52 469.49 L 381.52 469.99 L 379.39 470.00 L 377.14 469.50 L 375.06 468.51 L 373.39 467.19 L 372.12 465.56 L 371.34 463.79 L 371.08 461.91 L 371.40 460.03 L 372.31 458.34 L 373.67 457.02 L 375.37 456.11 L 377.38 455.61 L 379.51 455.59 L 381.76 456.09 L 383.84 457.09 L 385.50 458.41 L 386.78 460.04 L 387.56 461.81 L 387.82 463.69 L 387.49 465.57 Z" fill="#fcb860" fill-rule="nonzero" group-id="1,3,12,34" id="椭圆_589" node-id="108" stroke="none" target-height="14.407532" target-width="16.741577" target-x="371.07742" target-y="455.5949"></path><path d="M 449.68 463.30 L 448.66 464.91 L 447.21 466.14 L 445.44 466.93 L 443.40 467.29 L 441.28 467.15 L 439.07 466.50 L 437.06 465.36 L 435.50 463.93 L 434.33 462.21 L 433.68 460.39 L 433.55 458.50 L 434.01 456.64 L 435.03 455.02 L 436.48 453.80 L 438.24 453.01 L 440.28 452.65 L 442.41 452.78 L 444.62 453.44 L 446.62 454.57 L 448.19 456.01 L 449.35 457.72 L 450.01 459.55 L 450.14 461.44 L 449.68 463.30 Z" fill="#fcb860" fill-rule="nonzero" group-id="1,3,12,35" id="椭圆_590" node-id="109" stroke="none" target-height="14.634766" target-width="16.586273" target-x="433.55054" target-y="452.65112"></path><path d="M 635.68 631.69 L 640.27 634.42 L 650.10 640.08 L 663.61 647.82 L 679.28 656.74 L 695.55 666.00 L 710.89 674.71 L 723.76 682.01 L 732.61 687.03 L 735.90 688.90 L 737.25 689.60 L 738.73 690.14 L 741.01 690.65 L 743.56 690.82 L 746.80 690.49 L 748.98 689.95 L 751.43 688.99 L 754.20 687.55 L 761.03 683.47 L 771.25 677.36 L 783.33 670.13 L 795.71 662.68 L 806.87 655.92 L 815.25 650.75 L 819.32 648.07 L 820.32 646.89 L 821.00 645.33 L 821.38 643.61 L 821.54 641.86 L 821.49 638.88 L 821.37 637.61 L 817.84 635.91 L 808.33 631.33 L 794.50 624.67 L 778.00 616.72 L 760.49 608.26 L 743.64 600.10 L 729.09 593.02 L 718.50 587.81 L 713.54 585.27 L 711.10 584.11 L 708.63 583.50 L 706.10 583.40 L 703.58 583.77 L 700.83 584.64 L 697.81 586.07 L 692.43 589.04 L 682.62 594.47 L 670.31 601.30 L 657.40 608.47 L 645.81 614.90 L 637.45 619.54 L 634.24 621.33 L 633.85 622.54 L 633.31 625.42 L 633.29 627.13 L 633.60 628.84 L 634.34 630.39 L 635.68 631.69 Z" fill="#3f75c4" fill-rule="nonzero" group-id="1,3,13,36" id="路径_58-2" node-id="111" stroke="none" target-height="107.42114" target-width="188.25244" target-x="633.29254" target-y="583.3975"></path><path d="M 638.58 627.54 L 645.78 631.95 L 658.22 639.17 L 673.99 648.14 L 691.18 657.82 L 707.88 667.18 L 722.17 675.15 L 732.15 680.70 L 735.90 682.78 L 737.25 683.48 L 738.73 684.02 L 741.01 684.53 L 743.56 684.70 L 746.80 684.37 L 748.98 683.83 L 751.43 682.88 L 754.20 681.44 L 761.01 677.36 L 771.17 671.28 L 783.16 664.10 L 795.41 656.75 L 806.40 650.15 L 814.57 645.20 L 818.38 642.82 L 819.67 641.74 L 820.79 640.29 L 821.30 639.20 L 821.48 638.04 L 821.34 636.79 L 820.84 635.64 L 819.76 634.38 L 817.88 632.96 L 811.81 629.68 L 799.64 623.36 L 783.41 615.03 L 765.18 605.71 L 747.03 596.43 L 730.99 588.23 L 719.15 582.13 L 713.54 579.16 L 711.10 578.00 L 708.63 577.38 L 706.10 577.28 L 703.58 577.66 L 700.83 578.52 L 697.81 579.96 L 692.72 582.89 L 683.68 588.25 L 672.41 594.96 L 660.64 602.00 L 650.10 608.33 L 642.51 612.88 L 639.59 614.63 L 638.48 615.29 L 637.44 616.04 L 636.21 617.13 L 635.15 618.42 L 634.40 619.93 L 634.17 621.00 L 634.24 622.17 L 634.65 623.47 L 635.36 624.64 L 636.61 625.99 L 638.58 627.54 Z" fill="url(#linear-gradient-18)" fill-rule="nonzero" group-id="1,3,13,37" id="路径_60" node-id="112" stroke="none" target-height="107.42114" target-width="187.3194" target-x="634.1653" target-y="577.2835"></path><path d="M 740.87 617.03 L 731.49 622.50 L 785.21 650.36 L 795.47 644.54 Z" fill="#ffffff" fill-opacity="0.41" fill-rule="nonzero" group-id="1,3,13,38" id="路径_61" node-id="113" stroke="none" target-height="33.32599" target-width="63.981018" target-x="731.49097" target-y="617.034"></path><path d="M 719.47 633.70 L 710.09 639.17 L 738.58 653.75 L 748.85 647.92 Z" fill="#ffffff" fill-opacity="0.41" fill-rule="nonzero" group-id="1,3,13,39" id="路径_64" node-id="114" stroke="none" target-height="20.049988" target-width="38.750977" target-x="710.094" target-y="633.697"></path><path d="M 690.76 593.68 L 690.76 600.30 L 692.50 600.07 L 696.85 599.81 L 699.56 599.85 L 702.55 600.12 L 705.51 600.68 L 708.30 601.62 L 710.04 602.50 L 711.54 603.60 L 712.84 604.94 L 714.04 606.92 L 714.68 608.90 L 714.82 610.96 L 714.50 613.02 L 713.76 614.98 L 712.58 616.87 L 711.07 618.53 L 709.23 619.92 L 707.00 621.07 L 704.62 621.80 L 701.95 622.10 L 698.95 621.93 L 695.00 621.24 L 691.85 620.38 L 689.37 619.39 L 687.13 618.03 L 685.25 616.25 L 683.70 614.00 L 682.55 611.48 L 681.48 608.12 L 680.55 603.74 L 679.02 603.56 L 676.29 603.49 L 674.83 603.48 L 674.71 605.76 L 674.79 608.09 L 675.25 611.37 L 676.18 614.78 L 677.86 618.51 L 679.37 620.86 L 681.36 623.14 L 683.92 625.37 L 686.82 627.18 L 689.88 628.54 L 693.13 629.47 L 696.49 629.99 L 699.81 630.14 L 703.11 629.91 L 706.37 629.31 L 709.36 628.41 L 712.10 627.22 L 714.65 625.67 L 716.71 623.91 L 718.35 621.94 L 720.05 618.97 L 721.20 616.03 L 721.85 613.09 L 721.97 610.10 L 721.54 607.20 L 720.53 604.35 L 719.00 601.75 L 716.82 599.26 L 713.86 596.86 L 711.37 595.43 L 708.83 594.36 L 706.23 593.63 L 702.29 592.99 L 698.74 592.84 L 695.39 592.99 L 693.03 593.26 L 690.76 593.68 Z" fill="#ffffff" fill-opacity="0.42" fill-rule="nonzero" group-id="1,3,13,40" id="路径_63" node-id="115" stroke="none" target-height="37.30188" target-width="47.265625" target-x="674.7077" target-y="592.83636"></path><path d="M 514.41 711.16 L 519.00 713.89 L 528.83 719.56 L 542.35 727.29 L 558.01 736.22 L 574.28 745.47 L 589.62 754.19 L 602.49 761.49 L 611.34 766.51 L 614.63 768.37 L 615.98 769.07 L 617.46 769.61 L 619.74 770.12 L 622.29 770.29 L 625.53 769.96 L 627.71 769.42 L 630.16 768.47 L 632.93 767.02 L 639.76 762.94 L 649.98 756.83 L 662.06 749.60 L 674.45 742.15 L 685.60 735.39 L 693.98 730.22 L 698.05 727.55 L 699.06 726.36 L 699.73 724.80 L 700.11 723.08 L 700.28 721.33 L 700.22 718.35 L 700.10 717.09 L 696.58 715.38 L 687.07 710.81 L 673.23 704.14 L 656.73 696.19 L 639.22 687.73 L 622.37 679.57 L 607.82 672.49 L 597.23 667.28 L 592.27 664.74 L 589.83 663.59 L 587.36 662.97 L 584.84 662.87 L 582.31 663.25 L 579.56 664.11 L 576.54 665.54 L 571.16 668.51 L 561.35 673.95 L 549.04 680.78 L 536.13 687.94 L 524.54 694.38 L 516.18 699.02 L 512.97 700.80 L 512.58 702.01 L 512.04 704.89 L 512.02 706.60 L 512.33 708.32 L 513.07 709.86 L 514.41 711.16 Z" fill="#3f75c4" fill-rule="nonzero" group-id="1,3,14,41" id="路径_58-3" node-id="117" stroke="none" target-height="107.42114" target-width="188.25244" target-x="512.02356" target-y="662.8715"></path><path d="M 517.31 707.01 L 524.51 711.42 L 536.95 718.64 L 552.72 727.61 L 569.91 737.30 L 586.61 746.65 L 600.90 754.62 L 610.88 760.17 L 614.63 762.26 L 615.98 762.96 L 617.46 763.50 L 619.74 764.01 L 622.29 764.18 L 625.53 763.85 L 627.71 763.31 L 630.16 762.35 L 632.93 760.91 L 639.74 756.83 L 649.90 750.75 L 661.89 743.58 L 674.14 736.23 L 685.13 729.62 L 693.30 724.67 L 697.12 722.30 L 698.40 721.21 L 699.52 719.76 L 700.03 718.67 L 700.22 717.52 L 700.07 716.26 L 699.57 715.12 L 698.49 713.86 L 696.61 712.44 L 690.54 709.16 L 678.37 702.84 L 662.14 694.50 L 643.91 685.18 L 625.76 675.90 L 609.72 667.70 L 597.88 661.60 L 592.27 658.63 L 589.83 657.47 L 587.36 656.86 L 584.84 656.76 L 582.31 657.13 L 579.56 658.00 L 576.54 659.43 L 571.45 662.37 L 562.41 667.72 L 551.14 674.44 L 539.37 681.48 L 528.83 687.80 L 521.24 692.36 L 518.33 694.11 L 517.21 694.77 L 516.17 695.51 L 514.94 696.60 L 513.88 697.90 L 513.13 699.40 L 512.90 700.48 L 512.97 701.64 L 513.38 702.94 L 514.09 704.12 L 515.34 705.46 L 517.31 707.01 Z" fill="url(#linear-gradient-18)" fill-rule="nonzero" group-id="1,3,14,42" id="路径_60-2" node-id="118" stroke="none" target-height="107.42114" target-width="187.3194" target-x="512.8963" target-y="656.7575"></path><path d="M 619.60 696.51 L 610.22 701.98 L 663.94 729.83 L 674.20 724.01 Z" fill="#ffffff" fill-opacity="0.41" fill-rule="nonzero" group-id="1,3,14,43" id="路径_61-2" node-id="119" stroke="none" target-height="33.32599" target-width="63.980957" target-x="610.22205" target-y="696.508"></path><path d="M 598.20 713.17 L 588.83 718.64 L 617.31 733.22 L 627.58 727.40 Z" fill="#ffffff" fill-opacity="0.41" fill-rule="nonzero" group-id="1,3,14,44" id="路径_64-2" node-id="120" stroke="none" target-height="20.049988" target-width="38.751038" target-x="588.825" target-y="713.171"></path><path d="M 569.49 673.15 L 569.49 679.77 L 571.23 679.55 L 575.58 679.28 L 578.29 679.32 L 581.28 679.59 L 584.24 680.16 L 587.03 681.10 L 588.77 681.98 L 590.27 683.08 L 591.57 684.41 L 592.77 686.39 L 593.41 688.38 L 593.55 690.43 L 593.23 692.49 L 592.49 694.45 L 591.31 696.35 L 589.80 698.00 L 587.96 699.40 L 585.73 700.54 L 583.35 701.28 L 580.68 701.58 L 577.68 701.41 L 573.73 700.71 L 570.58 699.85 L 568.10 698.87 L 565.86 697.50 L 563.98 695.72 L 562.43 693.47 L 561.28 690.95 L 560.21 687.59 L 559.29 683.21 L 557.75 683.03 L 555.02 682.96 L 553.57 682.95 L 553.44 685.23 L 553.53 687.57 L 553.99 690.85 L 554.91 694.25 L 556.59 697.99 L 558.10 700.33 L 560.09 702.62 L 562.65 704.85 L 565.55 706.65 L 568.61 708.02 L 571.86 708.94 L 575.22 709.47 L 578.54 709.61 L 581.84 709.38 L 585.10 708.79 L 588.09 707.89 L 590.83 706.69 L 593.38 705.14 L 595.44 703.39 L 597.08 701.41 L 598.78 698.44 L 599.93 695.51 L 600.58 692.56 L 600.70 689.57 L 600.27 686.68 L 599.26 683.83 L 597.73 681.22 L 595.55 678.73 L 592.59 676.34 L 590.10 674.90 L 587.56 673.83 L 584.96 673.10 L 581.02 672.47 L 577.47 672.31 L 574.12 672.46 L 571.76 672.74 L 569.49 673.15 Z" fill="#ffffff" fill-opacity="0.42" fill-rule="nonzero" group-id="1,3,14,45" id="路径_63-2" node-id="121" stroke="none" target-height="37.30188" target-width="47.265625" target-x="553.4387" target-y="672.31036"></path></g></g></svg>